<svg xmlns="http://www.w3.org/2000/svg" width="32" height="32" viewBox="0 0 32 32" shape-rendering="crispEdges"><rect x="15" y="2" width="2" height="1" fill="#14110E"/><rect x="14" y="3" width="1" height="1" fill="#14110E"/><rect x="15" y="3" width="2" height="1" fill="#EDE4D6"/><rect x="17" y="3" width="1" height="1" fill="#14110E"/><rect x="13" y="4" width="1" height="1" fill="#14110E"/><rect x="14" y="4" width="4" height="1" fill="#EDE4D6"/><rect x="18" y="4" width="1" height="1" fill="#14110E"/><rect x="12" y="5" width="1" height="1" fill="#14110E"/><rect x="13" y="5" width="6" height="1" fill="#EDE4D6"/><rect x="19" y="5" width="1" height="1" fill="#14110E"/><rect x="11" y="6" width="1" height="1" fill="#14110E"/><rect x="12" y="6" width="8" height="1" fill="#EDE4D6"/><rect x="20" y="6" width="1" height="1" fill="#14110E"/><rect x="10" y="7" width="1" height="1" fill="#14110E"/><rect x="11" y="7" width="10" height="1" fill="#EDE4D6"/><rect x="21" y="7" width="1" height="1" fill="#14110E"/><rect x="9" y="8" width="1" height="1" fill="#14110E"/><rect x="10" y="8" width="12" height="1" fill="#EDE4D6"/><rect x="22" y="8" width="1" height="1" fill="#14110E"/><rect x="8" y="9" width="1" height="1" fill="#14110E"/><rect x="9" y="9" width="14" height="1" fill="#EDE4D6"/><rect x="23" y="9" width="1" height="1" fill="#14110E"/><rect x="9" y="10" width="5" height="1" fill="#14110E"/><rect x="14" y="10" width="4" height="1" fill="#EDE4D6"/><rect x="18" y="10" width="5" height="1" fill="#14110E"/><rect x="13" y="11" width="1" height="1" fill="#14110E"/><rect x="14" y="11" width="4" height="1" fill="#EDE4D6"/><rect x="18" y="11" width="1" height="1" fill="#14110E"/><rect x="13" y="12" width="1" height="1" fill="#14110E"/><rect x="14" y="12" width="4" height="1" fill="#EDE4D6"/><rect x="18" y="12" width="1" height="1" fill="#14110E"/><rect x="13" y="13" width="1" height="1" fill="#14110E"/><rect x="14" y="13" width="4" height="1" fill="#EDE4D6"/><rect x="18" y="13" width="1" height="1" fill="#14110E"/><rect x="13" y="14" width="1" height="1" fill="#14110E"/><rect x="14" y="14" width="4" height="1" fill="#EDE4D6"/><rect x="18" y="14" width="1" height="1" fill="#14110E"/><rect x="13" y="15" width="1" height="1" fill="#14110E"/><rect x="14" y="15" width="4" height="1" fill="#EDE4D6"/><rect x="18" y="15" width="1" height="1" fill="#14110E"/><rect x="13" y="16" width="1" height="1" fill="#14110E"/><rect x="14" y="16" width="4" height="1" fill="#EDE4D6"/><rect x="18" y="16" width="1" height="1" fill="#14110E"/><rect x="13" y="17" width="1" height="1" fill="#14110E"/><rect x="14" y="17" width="4" height="1" fill="#EDE4D6"/><rect x="18" y="17" width="1" height="1" fill="#14110E"/><rect x="13" y="18" width="1" height="1" fill="#14110E"/><rect x="14" y="18" width="4" height="1" fill="#EDE4D6"/><rect x="18" y="18" width="1" height="1" fill="#14110E"/><rect x="13" y="19" width="1" height="1" fill="#14110E"/><rect x="14" y="19" width="4" height="1" fill="#EDE4D6"/><rect x="18" y="19" width="1" height="1" fill="#14110E"/><rect x="8" y="20" width="6" height="1" fill="#14110E"/><rect x="14" y="20" width="4" height="1" fill="#EDE4D6"/><rect x="18" y="20" width="6" height="1" fill="#14110E"/><rect x="7" y="21" width="1" height="1" fill="#14110E"/><rect x="8" y="21" width="16" height="1" fill="#EDE4D6"/><rect x="24" y="21" width="1" height="1" fill="#14110E"/><rect x="8" y="22" width="1" height="1" fill="#14110E"/><rect x="9" y="22" width="14" height="1" fill="#EDE4D6"/><rect x="23" y="22" width="1" height="1" fill="#14110E"/><rect x="9" y="23" width="1" height="1" fill="#14110E"/><rect x="10" y="23" width="12" height="1" fill="#EDE4D6"/><rect x="22" y="23" width="1" height="1" fill="#14110E"/><rect x="10" y="24" width="1" height="1" fill="#14110E"/><rect x="11" y="24" width="10" height="1" fill="#EDE4D6"/><rect x="21" y="24" width="1" height="1" fill="#14110E"/><rect x="11" y="25" width="1" height="1" fill="#14110E"/><rect x="12" y="25" width="8" height="1" fill="#EDE4D6"/><rect x="20" y="25" width="1" height="1" fill="#14110E"/><rect x="12" y="26" width="1" height="1" fill="#14110E"/><rect x="13" y="26" width="6" height="1" fill="#EDE4D6"/><rect x="19" y="26" width="1" height="1" fill="#14110E"/><rect x="13" y="27" width="1" height="1" fill="#14110E"/><rect x="14" y="27" width="4" height="1" fill="#EDE4D6"/><rect x="18" y="27" width="1" height="1" fill="#14110E"/><rect x="14" y="28" width="1" height="1" fill="#14110E"/><rect x="15" y="28" width="2" height="1" fill="#EDE4D6"/><rect x="17" y="28" width="1" height="1" fill="#14110E"/><rect x="15" y="29" width="2" height="1" fill="#14110E"/></svg>
